<svg xmlns="http://www.w3.org/2000/svg" width="30.588" height="27.721" viewBox="0 0 30.588 27.721">
  <g id="noun-upload-1014458" transform="translate(-94.798 -189.604)">
    <path id="Pfad_46" data-name="Pfad 46" d="M124.805,619.2a.558.558,0,0,0-.544.544v10.994a2.137,2.137,0,0,1-2.141,2.1H98.027a2.114,2.114,0,0,1-2.141-2.1V619.74a.544.544,0,0,0-1.089,0v10.994a3.206,3.206,0,0,0,3.229,3.193h24.129a3.229,3.229,0,0,0,3.229-3.193V619.74a.591.591,0,0,0-.581-.544Z" transform="translate(0 -416.602)"/>
    <path id="Pfad_47" data-name="Pfad 47" d="M360.879,213.262a.558.558,0,0,0,.544-.544V191.309l5.7,4.9a.645.645,0,0,0,.363.145.582.582,0,0,0,.4-.181.529.529,0,0,0-.073-.762l-6.567-5.7a.275.275,0,0,0-.145-.073h-.036a1.571,1.571,0,0,0-.181-.036.327.327,0,0,0-.181.036h-.036c-.036.036-.109.036-.145.073l-6.568,5.66a.541.541,0,0,0,.689.834l5.7-4.862v21.408a.553.553,0,0,0,.544.508Z" transform="translate(-251.132)"/>
  </g>
</svg>
