<svg xmlns="http://www.w3.org/2000/svg" xmlns:xlink="http://www.w3.org/1999/xlink" width="248" height="50.355" viewBox="0 0 248 50.355">
  <defs>
    <clipPath id="clip-path">
      <rect id="Rechteck_2" data-name="Rechteck 2" width="248" height="50.355" fill="#fff"/>
    </clipPath>
  </defs>
  <g id="aufzugshandwerk-logo" transform="translate(-14.52 -14.21)">
    <g id="Gruppe_2" data-name="Gruppe 2" transform="translate(14.52 14.21)">
      <g id="Gruppe_1" data-name="Gruppe 1" clip-path="url(#clip-path)">
        <path id="Pfad_1" data-name="Pfad 1" d="M34.027,34.337a2.644,2.644,0,0,1,1.4-.3,1.468,1.468,0,0,1,1.021.283,1.325,1.325,0,0,1,.3.984,12.508,12.508,0,0,1-1.353.455c-.43.111-1.353.32-2.779.6a4.592,4.592,0,0,0-2.459,1.082,2.674,2.674,0,0,0-.664,1.869,2.609,2.609,0,0,0,.922,2.029,3.913,3.913,0,0,0,2.705.824,6.023,6.023,0,0,0,2.349-.418,5.1,5.1,0,0,0,1.488-1.033,3.942,3.942,0,0,0,.135.627,3.9,3.9,0,0,0,.283.59h3.578a5.084,5.084,0,0,1-.394-1.021,5.215,5.215,0,0,1-.086-1.107V35.42a4.4,4.4,0,0,0-.283-1.476,2.819,2.819,0,0,0-.762-1.193,3.538,3.538,0,0,0-1.734-.8,16.183,16.183,0,0,0-2.754-.2,11.274,11.274,0,0,0-1.992.16,4.992,4.992,0,0,0-1.439.443,3.334,3.334,0,0,0-1.119.947,4.061,4.061,0,0,0-.59,1.5l3.64.381a1.726,1.726,0,0,1,.59-.848m2.718,3.492a2.414,2.414,0,0,1-.234,1.156,1.9,1.9,0,0,1-.775.75,2.351,2.351,0,0,1-1.18.307,1.356,1.356,0,0,1-.922-.283.94.94,0,0,1-.32-.738.977.977,0,0,1,.32-.7,3.773,3.773,0,0,1,1.463-.6c.566-.148,1.119-.307,1.635-.492v.6Zm18.408-5.841H51.341v4.783a3.059,3.059,0,0,1-.43,1.881,1.416,1.416,0,0,1-1.119.529,1.241,1.241,0,0,1-.971-.393,2,2,0,0,1-.344-1.328V31.989H44.64v6.333a4.063,4.063,0,0,0,.9,2.9,3.251,3.251,0,0,0,2.472.947A4.42,4.42,0,0,0,50,41.752a5.359,5.359,0,0,0,1.611-1.414v1.611h3.554v-9.96Zm8.522-.873a.941.941,0,0,1,.32-.541,1.251,1.251,0,0,1,.738-.172,7.231,7.231,0,0,1,1.107.111l.418-2.3a25.012,25.012,0,0,0-2.914-.234,5.053,5.053,0,0,0-1.906.283,2.471,2.471,0,0,0-1.008.75,2.632,2.632,0,0,0-.492,1.193,7.849,7.849,0,0,0-.135,1.34V32H58.375v2.791H59.8v7.157h3.824V34.792h1.82V32h-1.82a5.886,5.886,0,0,1,.049-.885m4.66,3.48h4.39l-4.771,4.87v2.472h9.911V39.33H72.541l5.017-5.115V31.989H68.335Zm23.5-2.607H88.022v4.783a3.059,3.059,0,0,1-.43,1.881,1.416,1.416,0,0,1-1.119.529,1.241,1.241,0,0,1-.971-.393,2,2,0,0,1-.344-1.328V31.989H81.333v6.333a4.063,4.063,0,0,0,.9,2.9,3.251,3.251,0,0,0,2.472.947,4.42,4.42,0,0,0,1.992-.418,5.218,5.218,0,0,0,1.611-1.414v1.611h3.554v-9.96Zm11.153,1.476a4.347,4.347,0,0,0-1.414-1.3,4.19,4.19,0,0,0-1.918-.393,3.8,3.8,0,0,0-2.939,1.217A5.038,5.038,0,0,0,95.6,36.526,5.6,5.6,0,0,0,96.47,39.8a3.77,3.77,0,0,0,3.222,1.734,4.083,4.083,0,0,0,1.906-.467,3.887,3.887,0,0,0,1.119-.959v1.512a2.281,2.281,0,0,1-.406,1.537,1.582,1.582,0,0,1-1.23.443,1.79,1.79,0,0,1-1.058-.3,1.224,1.224,0,0,1-.43-.713l-3.7-.418c-.012.209-.025.381-.025.5a2.924,2.924,0,0,0,1.119,2.41c.75.6,2.115.9,4.119.9a10.175,10.175,0,0,0,2.324-.234,4.046,4.046,0,0,0,1.672-.762,3.81,3.81,0,0,0,1.058-1.365,4.058,4.058,0,0,0,.393-1.783l-.012-.443V32h-3.566v1.463Zm-3.148,1.6a1.426,1.426,0,0,1,1.168-.529,1.567,1.567,0,0,1,1.23.578,2.457,2.457,0,0,1,.5,1.66,2.37,2.37,0,0,1-.48,1.623,1.624,1.624,0,0,1-2.4.025,2.363,2.363,0,0,1-.455-1.6,2.659,2.659,0,0,1,.43-1.758m11.743,6.321a7.278,7.278,0,0,0,3.886.775,7.911,7.911,0,0,0,3.05-.48,3.47,3.47,0,0,0,1.635-1.291,3.1,3.1,0,0,0,.516-1.672,2.673,2.673,0,0,0-.492-1.562,3.123,3.123,0,0,0-1.414-1.094,11.18,11.18,0,0,0-2.828-.6,6.279,6.279,0,0,1-1.635-.332.591.591,0,0,1-.369-.553.668.668,0,0,1,.3-.553,1.6,1.6,0,0,1,.947-.234,1.926,1.926,0,0,1,1.082.3,1.228,1.228,0,0,1,.467.7l3.615-.357a4.478,4.478,0,0,0-.935-1.549,3.486,3.486,0,0,0-1.414-.848,9.193,9.193,0,0,0-2.632-.271,8.48,8.48,0,0,0-2.693.344,3.469,3.469,0,0,0-1.574,1.058,2.594,2.594,0,0,0-.566,1.7,2.551,2.551,0,0,0,.529,1.6,2.933,2.933,0,0,0,1.3,1,17.633,17.633,0,0,0,2.754.639,7.586,7.586,0,0,1,1.635.393.7.7,0,0,1,.43.639.714.714,0,0,1-.332.6,2.289,2.289,0,0,1-2.312.037,1.827,1.827,0,0,1-.652-.959l-3.787.357a3.531,3.531,0,0,0,1.488,2.226m12.825.553h3.812V37.166a3.059,3.059,0,0,1,.43-1.881,1.4,1.4,0,0,1,1.119-.529,1.241,1.241,0,0,1,.971.393,1.979,1.979,0,0,1,.344,1.328v5.472h3.824V35.629a4.063,4.063,0,0,0-.9-2.9,3.232,3.232,0,0,0-2.447-.947,4.37,4.37,0,0,0-1.82.344A5.076,5.076,0,0,0,128.2,33.28V28.226h-3.812V41.937Zm18.777-7.6a2.674,2.674,0,0,1,1.4-.3,1.468,1.468,0,0,1,1.021.283,1.325,1.325,0,0,1,.3.984,12.507,12.507,0,0,1-1.353.455c-.43.111-1.353.32-2.779.6a4.546,4.546,0,0,0-2.459,1.082,2.674,2.674,0,0,0-.664,1.869,2.609,2.609,0,0,0,.922,2.029,3.913,3.913,0,0,0,2.705.824,6.023,6.023,0,0,0,2.349-.418,5.1,5.1,0,0,0,1.488-1.033,2.913,2.913,0,0,0,.135.627,3.9,3.9,0,0,0,.283.59h3.578a5.082,5.082,0,0,1-.393-1.021,5.212,5.212,0,0,1-.086-1.107V35.42a4.4,4.4,0,0,0-.283-1.476,2.819,2.819,0,0,0-.762-1.193,3.538,3.538,0,0,0-1.734-.8,16.183,16.183,0,0,0-2.754-.2,11.037,11.037,0,0,0-1.98.16,4.991,4.991,0,0,0-1.439.443,3.334,3.334,0,0,0-1.119.947,4.062,4.062,0,0,0-.59,1.5l3.64.381a1.511,1.511,0,0,1,.578-.848M145.9,37.83a2.414,2.414,0,0,1-.234,1.156,1.9,1.9,0,0,1-.775.75,2.351,2.351,0,0,1-1.18.307,1.356,1.356,0,0,1-.922-.283.94.94,0,0,1-.32-.738.977.977,0,0,1,.32-.7,3.773,3.773,0,0,1,1.463-.6c.566-.148,1.119-.307,1.635-.492v.6Zm7.931,4.107h3.812V37.166a3.06,3.06,0,0,1,.43-1.881,1.4,1.4,0,0,1,1.119-.529,1.241,1.241,0,0,1,.971.393,1.979,1.979,0,0,1,.344,1.328v5.472h3.824V35.629a4.043,4.043,0,0,0-.9-2.9,3.263,3.263,0,0,0-2.472-.935,4.1,4.1,0,0,0-1.98.43,5.386,5.386,0,0,0-1.611,1.414V32.013h-3.554v9.923Zm21.335-13.723v4.759a3.71,3.71,0,0,0-1.291-.9,4.223,4.223,0,0,0-1.611-.3,3.847,3.847,0,0,0-3.013,1.316,5.482,5.482,0,0,0-1.18,3.787,6.394,6.394,0,0,0,1.07,3.75,3.532,3.532,0,0,0,3.1,1.549,3.91,3.91,0,0,0,1.832-.43,4.96,4.96,0,0,0,1.365-1.267v1.476h3.566V28.214ZM174.7,38.8a1.515,1.515,0,0,1-1.217.566,1.409,1.409,0,0,1-1.144-.566,2.812,2.812,0,0,1-.467-1.783,3.028,3.028,0,0,1,.443-1.857,1.385,1.385,0,0,1,1.119-.553,1.6,1.6,0,0,1,1.254.578,2.619,2.619,0,0,1,.492,1.746,2.771,2.771,0,0,1-.48,1.869m11.313,3.136h3.406l1.943-5.988,2.017,5.988h3.394l3.664-9.948h-3.664l-1.611,6.284-2.1-6.284h-3.443L187.6,38.248,186,31.989h-3.689Zm28.27-4.464a6.868,6.868,0,0,0-.652-3.2,4.317,4.317,0,0,0-1.881-1.869,7.336,7.336,0,0,0-3.369-.639,5.678,5.678,0,0,0-4.119,1.439,5.011,5.011,0,0,0-1.488,3.775,5.282,5.282,0,0,0,.75,2.853,4.473,4.473,0,0,0,1.881,1.771,7.191,7.191,0,0,0,3.111.553,7.606,7.606,0,0,0,3.492-.652,5.4,5.4,0,0,0,2.078-2.152l-3.75-.344a2.558,2.558,0,0,1-.664.627,2.174,2.174,0,0,1-1.07.283,1.774,1.774,0,0,1-1.439-.652,2.412,2.412,0,0,1-.492-1.365h7.636v-.43Zm-7.636-1.39a2.606,2.606,0,0,1,.443-1.34,1.729,1.729,0,0,1,1.451-.726,1.706,1.706,0,0,1,1.267.48,2.564,2.564,0,0,1,.59,1.586ZM218,41.937h3.824V38.6a6.283,6.283,0,0,1,.59-3.259,1.329,1.329,0,0,1,1.168-.615,3.131,3.131,0,0,1,1.07.283l1.18-2.718a4.074,4.074,0,0,0-1.845-.529,2.285,2.285,0,0,0-1.353.393,3.915,3.915,0,0,0-1.07,1.451V31.989H218Zm11.03,0h3.9V39.354l1.439-1.4,2.017,3.984h4.292L236.9,35.481,240.465,32h-4.7l-2.853,3.308V28.226h-3.9V41.937Z" transform="translate(-11.082 -11.047)" fill="#fff"/>
      </g>
    </g>
    <path id="Pfad_2" data-name="Pfad 2" d="M18.074,17.764H258.966V61.011H18.074Zm-3.554,46.8h248V14.21h-248Z" transform="translate(0 0)" fill="#fff"/>
  </g>
</svg>
