<svg xmlns="http://www.w3.org/2000/svg" width="85.824" height="92.578" viewBox="0 0 85.824 92.578">
  <g id="noun-transparency-4303322" transform="translate(-119.085 -80.538)">
    <path id="Pfad_289" data-name="Pfad 289" d="M140.807,81.05a9.889,9.889,0,0,0-2.849.441c-1.808.588-3.088,1.869-4.956,4.008l-10.77,12.358c-2.194,2.523-2.647,5.171-2.647,8.761v58.2a7.776,7.776,0,0,0,7.757,7.75l52.1.049a7.733,7.733,0,0,0,5.716-2.494l-2.61-2.4a4.154,4.154,0,0,1-3.095,1.334L127.341,169a4.144,4.144,0,0,1-4.2-4.184l.025-59.346H137.62a6.178,6.178,0,0,0,6.164-6.139V89.658a1.779,1.779,0,1,0-3.558,0v9.674a2.558,2.558,0,0,1-2.606,2.593H123.744a7.535,7.535,0,0,1,1.172-1.735l10.77-12.351c1.794-2.057,2.529-2.7,3.375-2.97s2.4-.251,5.551-.251h34.827a4.145,4.145,0,0,1,4.209,4.178v24.169l3.558,3.743V88.8a7.78,7.78,0,0,0-7.769-7.739H144.612c-1.543,0-2.757-.042-3.8-.006Z" fill="#fff" stroke="#748d88" stroke-width="1" fill-rule="evenodd"/>
    <path id="Pfad_290" data-name="Pfad 290" d="M485.653,572.24c-5.151,0-9.907,2.593-14.447,7.984a2.1,2.1,0,0,0,0,2.652c4.489,5.441,9.3,7.991,14.451,7.991s9.962-2.55,14.449-7.991a2.1,2.1,0,0,0-.007-2.652c-4.535-5.391-9.288-7.984-14.442-7.984Zm.014,2.346a12.317,12.317,0,0,1,5.287,1.147,7.163,7.163,0,1,1-10.586-.011,11.809,11.809,0,0,1,5.3-1.135Z" transform="translate(-320.169 -447.868)" fill="#fff" stroke="#748d88" stroke-width="1"/>
    <path id="Pfad_291" data-name="Pfad 291" d="M591.763,614.165a.4.4,0,0,0-.338.559,1.518,1.518,0,0,1-1.794,2.065,1.481,1.481,0,0,1-.783-.508.4.4,0,0,0-.651.042,4.547,4.547,0,0,0-.552,1.255,4.615,4.615,0,1,0,5.655-3.271,4.973,4.973,0,0,0-1.537-.141Z" transform="translate(-426.621 -486.087)" fill="#fff" stroke="#748d88" stroke-width="1"/>
    <path id="Pfad_292" data-name="Pfad 292" d="M397.871,416.134a19.722,19.722,0,1,1-13.943,5.785A19.638,19.638,0,0,1,397.871,416.134Zm0-3.686a23.411,23.411,0,1,0,15.182,41.215l2.96,2.96a6.414,6.414,0,0,0,1.114,7.511l8.8,8.8a6.377,6.377,0,1,0,9.018-9.019l-8.8-8.8a6.386,6.386,0,0,0-7.5-1.109l-2.965-2.96a23.4,23.4,0,0,0-17.8-38.6Z" transform="translate(-232.387 -302.173)" fill="#fff" stroke="#748d88" stroke-width="1" fill-rule="evenodd"/>
  </g>
</svg>
