<svg xmlns="http://www.w3.org/2000/svg" width="98.681" height="98.647" viewBox="0 0 98.681 98.647">
  <path id="noun-saving-time-3843177" d="M249.182,210.516l-9.379-5.283a1.37,1.37,0,0,0-1.937.666l-.926,2.217a42.426,42.426,0,0,1-10.607-5.368c-1.293-.822-2.609-1.66-4-2.466-6.321-3.71-17.483-1.825-23.078-.129-3.82,1.159-10.228,3.014-14.754,4.31h0a6.724,6.724,0,0,0-4.576,8.42c0,.022.022.036.027.057a15.2,15.2,0,0,1-4.5-1.285l-16.16-7.6a5.494,5.494,0,0,0-5.3,9.59l19.234,12.33a23.387,23.387,0,0,0,10.3,3.562l36.4,3.562L226,234.282l-3.416,8.159a1.37,1.37,0,0,0,.6,1.726l9.023,5.028a1.343,1.343,0,0,0,.663.173,1.37,1.37,0,0,0,.669-2.564l-7.946-4.433,14.22-34,8.036,4.527a1.37,1.37,0,0,0,1.345-2.387Zm-28.871,19.89-36.526-3.562a20.654,20.654,0,0,1-9.092-3.153l-19.234-12.33a2.758,2.758,0,0,1,2.655-4.82l16.166,7.584a17.87,17.87,0,0,0,7.8,1.685l1.866-.027h.027c4.17-.137,14.557-.408,20.906.074h.1a1.371,1.371,0,1,0,.1-2.74c-6.469-.493-16.927-.225-21.163-.082h-.047a1.394,1.394,0,0,1-1.34-.967,3.982,3.982,0,0,1,2.71-4.99c4.537-1.3,10.96-3.159,14.8-4.321,6.707-2.033,16.105-2.94,20.9-.129,1.37.8,2.647,1.617,3.913,2.422a45.313,45.313,0,0,0,11.018,5.592L227.061,231.7Zm-30.962,6.609a1.37,1.37,0,0,1-1.37,1.236h-.137l-5.126-.5a31.673,31.673,0,0,1-13.935-4.833,1.373,1.373,0,1,1,1.471-2.318,28.864,28.864,0,0,0,12.727,4.411l5.126.5a1.369,1.369,0,0,1,1.236,1.5Zm-26.188-75.56a1.37,1.37,0,1,1,1.37,1.37,1.369,1.369,0,0,1-1.37-1.37Zm33.378,76.089a1.37,1.37,0,1,1-.4-.969,1.37,1.37,0,0,1,.4.969Zm-34.584-54.271a29.9,29.9,0,0,1-1.841-10.368,30.258,30.258,0,0,1,.411-4.979,1.37,1.37,0,1,1,2.7.452,27.781,27.781,0,0,0-.372,4.527,27.232,27.232,0,0,0,1.669,9.422,1.371,1.371,0,0,1-.822,1.759,1.352,1.352,0,0,1-.471.082,1.369,1.369,0,0,1-1.274-.9Zm28.3,11.538a21.922,21.922,0,1,0-10.96-2.937,21.92,21.92,0,0,0,10.96,2.937Zm0-41.072a19.18,19.18,0,1,1-13.562,5.617A19.179,19.179,0,0,1,190.253,153.738ZM182.8,178.1a1.37,1.37,0,0,1,.34-1.918l5.754-4.008V160.084a1.37,1.37,0,1,1,2.74,0V172.9a1.371,1.371,0,0,1-.587,1.123l-6.329,4.417h0a1.369,1.369,0,0,1-1.918-.339Z" transform="translate(-151.384 -150.846)" fill="#fff" stroke="#fff" stroke-width="0.25"/>
</svg>
