<svg xmlns="http://www.w3.org/2000/svg" xmlns:xlink="http://www.w3.org/1999/xlink" width="269" height="54.619" viewBox="0 0 269 54.619">
  <defs>
    <clipPath id="clip-path">
      <rect id="Rechteck_2" data-name="Rechteck 2" width="269" height="54.619"/>
    </clipPath>
  </defs>
  <g id="aufzugshandwerk-logo" transform="translate(-14.52 -14.21)">
    <g id="Gruppe_2" data-name="Gruppe 2" transform="translate(14.52 14.21)">
      <g id="Gruppe_1" data-name="Gruppe 1" clip-path="url(#clip-path)">
        <path id="Pfad_1" data-name="Pfad 1" d="M34.412,34.876a2.868,2.868,0,0,1,1.521-.32,1.592,1.592,0,0,1,1.107.307,1.437,1.437,0,0,1,.32,1.067,13.567,13.567,0,0,1-1.467.494c-.467.12-1.467.347-3.014.654A4.98,4.98,0,0,0,30.21,38.25a2.9,2.9,0,0,0-.72,2.027,2.83,2.83,0,0,0,1,2.2,4.244,4.244,0,0,0,2.934.894,6.533,6.533,0,0,0,2.548-.453,5.53,5.53,0,0,0,1.614-1.12,4.275,4.275,0,0,0,.147.68,4.227,4.227,0,0,0,.307.64h3.881a5.514,5.514,0,0,1-.427-1.107,5.656,5.656,0,0,1-.093-1.2V36.049a4.775,4.775,0,0,0-.307-1.6,3.058,3.058,0,0,0-.827-1.294,3.838,3.838,0,0,0-1.881-.867,17.553,17.553,0,0,0-2.988-.213,12.229,12.229,0,0,0-2.161.173,5.414,5.414,0,0,0-1.561.48,3.617,3.617,0,0,0-1.214,1.027,4.405,4.405,0,0,0-.64,1.627l3.948.413a1.872,1.872,0,0,1,.64-.92m2.948,3.788a2.619,2.619,0,0,1-.253,1.254,2.063,2.063,0,0,1-.84.814,2.55,2.55,0,0,1-1.28.333,1.471,1.471,0,0,1-1-.307,1.02,1.02,0,0,1-.347-.8,1.06,1.06,0,0,1,.347-.76,4.093,4.093,0,0,1,1.587-.654c.614-.16,1.214-.333,1.774-.534v.654Zm19.967-6.336H53.192v5.188a3.318,3.318,0,0,1-.467,2.041,1.536,1.536,0,0,1-1.214.574,1.347,1.347,0,0,1-1.054-.427,2.17,2.17,0,0,1-.373-1.441V32.328H45.922V39.2a4.407,4.407,0,0,0,.974,3.148,3.527,3.527,0,0,0,2.681,1.027,4.794,4.794,0,0,0,2.161-.453,5.813,5.813,0,0,0,1.747-1.534v1.747H57.34v-10.8Zm9.243-.947a1.021,1.021,0,0,1,.347-.587,1.357,1.357,0,0,1,.8-.187,7.843,7.843,0,0,1,1.2.12l.453-2.494a27.13,27.13,0,0,0-3.161-.253,5.48,5.48,0,0,0-2.067.307,2.68,2.68,0,0,0-1.094.814,2.855,2.855,0,0,0-.534,1.294,8.514,8.514,0,0,0-.147,1.454v.494H60.821v3.028h1.547v7.763h4.148V35.369H68.49V32.342H66.516a6.385,6.385,0,0,1,.053-.96m5.055,3.775h4.762l-5.175,5.282v2.681h10.75V40.291H76.186l5.442-5.549V32.328h-10Zm25.489-2.828H92.979v5.188a3.319,3.319,0,0,1-.467,2.041,1.536,1.536,0,0,1-1.214.574,1.347,1.347,0,0,1-1.054-.427,2.17,2.17,0,0,1-.373-1.441V32.328H85.723V39.2a4.407,4.407,0,0,0,.974,3.148,3.527,3.527,0,0,0,2.681,1.027,4.794,4.794,0,0,0,2.161-.453,5.659,5.659,0,0,0,1.747-1.534v1.747H97.14v-10.8Zm12.1,1.6a4.715,4.715,0,0,0-1.534-1.414,4.545,4.545,0,0,0-2.081-.427,4.126,4.126,0,0,0-3.188,1.32,5.464,5.464,0,0,0-1.214,3.841,6.069,6.069,0,0,0,.947,3.548,4.089,4.089,0,0,0,3.495,1.881,4.429,4.429,0,0,0,2.067-.507,4.216,4.216,0,0,0,1.214-1.04v1.641a2.474,2.474,0,0,1-.44,1.667,1.716,1.716,0,0,1-1.334.48A1.942,1.942,0,0,1,106,44.6a1.328,1.328,0,0,1-.467-.774l-4.015-.453c-.013.227-.027.413-.027.547a3.172,3.172,0,0,0,1.214,2.614c.814.654,2.294.974,4.468.974a11.037,11.037,0,0,0,2.521-.253,4.389,4.389,0,0,0,1.814-.827,4.132,4.132,0,0,0,1.147-1.481,4.4,4.4,0,0,0,.427-1.934l-.013-.48V32.342H109.2v1.587ZM105.8,35.663a1.546,1.546,0,0,1,1.267-.574,1.7,1.7,0,0,1,1.334.627,2.665,2.665,0,0,1,.547,1.8,2.571,2.571,0,0,1-.52,1.761,1.761,1.761,0,0,1-2.6.027,2.564,2.564,0,0,1-.493-1.734,2.884,2.884,0,0,1,.467-1.907m12.738,6.856a7.894,7.894,0,0,0,4.215.84,8.581,8.581,0,0,0,3.308-.52,3.764,3.764,0,0,0,1.774-1.4,3.359,3.359,0,0,0,.56-1.814,2.9,2.9,0,0,0-.534-1.694,3.387,3.387,0,0,0-1.534-1.187,12.126,12.126,0,0,0-3.068-.654,6.811,6.811,0,0,1-1.774-.36.641.641,0,0,1-.4-.6.724.724,0,0,1,.32-.6,1.731,1.731,0,0,1,1.027-.253,2.089,2.089,0,0,1,1.174.32,1.332,1.332,0,0,1,.507.76l3.921-.387a4.858,4.858,0,0,0-1.014-1.681,3.781,3.781,0,0,0-1.534-.92,9.971,9.971,0,0,0-2.854-.293,9.2,9.2,0,0,0-2.921.373A3.762,3.762,0,0,0,118,33.6a2.814,2.814,0,0,0-.614,1.841,2.767,2.767,0,0,0,.574,1.734,3.181,3.181,0,0,0,1.414,1.08,19.126,19.126,0,0,0,2.988.694,8.228,8.228,0,0,1,1.774.427.754.754,0,0,1,.467.694.774.774,0,0,1-.36.654,2.483,2.483,0,0,1-2.508.04,1.982,1.982,0,0,1-.707-1.04l-4.108.387a3.83,3.83,0,0,0,1.614,2.414m13.912.6h4.135V37.943a3.318,3.318,0,0,1,.467-2.041,1.517,1.517,0,0,1,1.214-.574,1.347,1.347,0,0,1,1.054.427,2.146,2.146,0,0,1,.373,1.44v5.935h4.148V36.276a4.407,4.407,0,0,0-.974-3.148,3.506,3.506,0,0,0-2.654-1.027,4.741,4.741,0,0,0-1.974.373,5.506,5.506,0,0,0-1.681,1.254V28.247h-4.135V43.119Zm20.367-8.243a2.9,2.9,0,0,1,1.521-.32,1.592,1.592,0,0,1,1.107.307,1.437,1.437,0,0,1,.32,1.067,13.566,13.566,0,0,1-1.467.494c-.467.12-1.467.347-3.014.654a4.931,4.931,0,0,0-2.668,1.174,2.9,2.9,0,0,0-.72,2.027,2.83,2.83,0,0,0,1,2.2,4.244,4.244,0,0,0,2.934.894,6.533,6.533,0,0,0,2.548-.453,5.531,5.531,0,0,0,1.614-1.12,3.159,3.159,0,0,0,.147.68,4.228,4.228,0,0,0,.307.64h3.881a5.513,5.513,0,0,1-.427-1.107,5.654,5.654,0,0,1-.093-1.2V36.049a4.775,4.775,0,0,0-.307-1.6,3.058,3.058,0,0,0-.827-1.294,3.838,3.838,0,0,0-1.881-.867,17.553,17.553,0,0,0-2.988-.213,11.971,11.971,0,0,0-2.147.173,5.414,5.414,0,0,0-1.561.48,3.617,3.617,0,0,0-1.214,1.027,4.406,4.406,0,0,0-.64,1.627l3.948.413a1.639,1.639,0,0,1,.627-.92m2.948,3.788a2.619,2.619,0,0,1-.253,1.254,2.063,2.063,0,0,1-.84.814,2.55,2.55,0,0,1-1.28.333,1.471,1.471,0,0,1-1-.307,1.02,1.02,0,0,1-.347-.8,1.06,1.06,0,0,1,.347-.76,4.093,4.093,0,0,1,1.587-.654c.614-.16,1.214-.333,1.774-.534v.654Zm8.6,4.455H168.5V37.943a3.319,3.319,0,0,1,.467-2.041,1.517,1.517,0,0,1,1.214-.574,1.347,1.347,0,0,1,1.054.427,2.146,2.146,0,0,1,.373,1.44v5.935h4.148V36.276a4.385,4.385,0,0,0-.974-3.148,3.539,3.539,0,0,0-2.681-1.014,4.443,4.443,0,0,0-2.147.467,5.842,5.842,0,0,0-1.747,1.534V32.355H164.35V43.119ZM187.5,28.233V33.4a4.024,4.024,0,0,0-1.4-.974,4.581,4.581,0,0,0-1.747-.32,4.172,4.172,0,0,0-3.268,1.427,5.946,5.946,0,0,0-1.28,4.108,6.935,6.935,0,0,0,1.16,4.068,3.831,3.831,0,0,0,3.361,1.681,4.241,4.241,0,0,0,1.987-.467,5.38,5.38,0,0,0,1.48-1.374v1.6h3.868V28.233ZM187,39.717a1.643,1.643,0,0,1-1.32.614,1.528,1.528,0,0,1-1.24-.614,3.051,3.051,0,0,1-.507-1.934,3.285,3.285,0,0,1,.48-2.014,1.5,1.5,0,0,1,1.214-.6,1.734,1.734,0,0,1,1.36.627,2.841,2.841,0,0,1,.534,1.894,3.005,3.005,0,0,1-.52,2.027m12.271,3.4h3.695l2.107-6.5,2.187,6.5h3.681l3.975-10.79H210.94l-1.747,6.816-2.281-6.816h-3.735l-2.187,6.789-1.734-6.789h-4Zm30.664-4.842a7.449,7.449,0,0,0-.707-3.468,4.683,4.683,0,0,0-2.041-2.027,7.957,7.957,0,0,0-3.655-.694,6.159,6.159,0,0,0-4.468,1.561,5.435,5.435,0,0,0-1.614,4.095,5.729,5.729,0,0,0,.814,3.094,4.852,4.852,0,0,0,2.041,1.921,7.8,7.8,0,0,0,3.374.6,8.25,8.25,0,0,0,3.788-.707,5.861,5.861,0,0,0,2.254-2.334l-4.068-.373a2.774,2.774,0,0,1-.72.68,2.358,2.358,0,0,1-1.16.307,1.924,1.924,0,0,1-1.561-.707,2.616,2.616,0,0,1-.533-1.481h8.283v-.467ZM221.65,36.77a2.827,2.827,0,0,1,.48-1.454,1.875,1.875,0,0,1,1.574-.787,1.85,1.85,0,0,1,1.374.52,2.781,2.781,0,0,1,.64,1.721Zm12.311,6.349h4.148V39.5a6.815,6.815,0,0,1,.64-3.535,1.442,1.442,0,0,1,1.267-.667,3.4,3.4,0,0,1,1.16.307l1.28-2.948a4.419,4.419,0,0,0-2-.574,2.478,2.478,0,0,0-1.467.427,4.246,4.246,0,0,0-1.16,1.574V32.328h-3.868Zm11.964,0h4.228v-2.8l1.561-1.521,2.187,4.322h4.655l-4.095-7,3.868-3.775h-5.1l-3.094,3.588V28.247h-4.228V43.119Z" transform="translate(-9.523 -9.614)" fill="#748d88"/>
      </g>
    </g>
    <path id="Pfad_2" data-name="Pfad 2" d="M18.375,18.065H279.665v46.91H18.375ZM14.52,68.829h269V14.21h-269Z" transform="translate(0 0)" fill="#748d88"/>
  </g>
</svg>
