<svg xmlns="http://www.w3.org/2000/svg" width="110.724" height="116.477" viewBox="0 0 110.724 116.477">
  <path id="noun-network-5348713" d="M388.782,372.871l6.1,3.525-1.388,2.392-6.081-3.525ZM412.524,386.6l13.77,7.944-1.388,2.392-13.751-7.926a5.333,5.333,0,0,1-7.634,0l-14.281,8.255L372.4,387.553v14.61h-2.812v-14.61l-16.874,9.715-14.372-8.291a5.333,5.333,0,0,1-7.634,0L316.958,396.9l-1.388-2.392,13.806-7.853a5.632,5.632,0,0,1-.2-1.37,5.369,5.369,0,0,1,3.981-5.15V363.3l16.819-9.7-12.783-7.3,1.388-2.392,12.784,7.3V331.744l14.445-8.328a5.632,5.632,0,0,1-.2-1.37,5.368,5.368,0,0,1,3.981-5.168V301.028h2.776v15.852a5.368,5.368,0,0,1,3.981,5.168,5.633,5.633,0,0,1-.2,1.37l14.445,8.328v19.468l12.783-7.3,1.388,2.392-12.784,7.3,16.819,9.7v16.783a5.369,5.369,0,0,1,3.981,5.15,5.631,5.631,0,0,1-.2,1.424Zm-44.139-64.557a2.593,2.593,0,1,0,2.593-2.593,2.594,2.594,0,0,0-2.593,2.593ZM354.141,352.8l9.131,5.241a9.861,9.861,0,0,1,6.337-3.652v-3.031h2.776v3.013a9.861,9.861,0,0,1,6.337,3.652l9.131-5.241V333.352l-13.039-7.524a5.31,5.31,0,0,1-2.411,1.37v3.086H369.59V327.2a5.31,5.31,0,0,1-2.411-1.37l-13.039,7.524Zm-17,32.434a2.593,2.593,0,1,0-2.593,2.593,2.594,2.594,0,0,0,2.593-2.593Zm32.451-11.359a9.807,9.807,0,0,1-6.319-3.652l-2.611,1.516-1.37-2.411,2.557-1.479a9.661,9.661,0,0,1,0-7.414l-9.131-5.223-16.8,9.7v15.176a5.349,5.349,0,0,1,2.411,1.351l2.63-1.516,1.388,2.411-2.648,1.516a5.143,5.143,0,0,1,.219,1.388,5.489,5.489,0,0,1-.2,1.333l13,7.506,16.838-9.715Zm8.492-9.734a7.289,7.289,0,1,1,0-.018Zm25.567,17.312a5.35,5.35,0,0,1,2.411-1.351V364.909l-16.82-9.7-9.131,5.223a9.661,9.661,0,0,1,0,7.414l2.557,1.479-1.37,2.411-2.611-1.516a9.807,9.807,0,0,1-6.319,3.652v10.5l16.874,9.7,13-7.414a5.488,5.488,0,0,1-.2-1.333,5.143,5.143,0,0,1,.219-1.388l-2.648-1.516L401,380.011Zm6.374,3.8a1.8,1.8,0,1,1-.018-.018Zm-62.95-8.857,1.388,2.392,6.081-3.525-1.388-2.392Zm65.506-30.9a5.278,5.278,0,0,1-3.8-1.571,5.351,5.351,0,0,1,0-7.579,5.479,5.479,0,0,1,7.579,0,5.351,5.351,0,0,1,0,7.579A5.258,5.258,0,0,1,412.578,345.5Zm-1.826-3.525a2.648,2.648,0,0,0,3.652,0,2.583,2.583,0,1,0-3.671,0Zm-45.035,71.551a5.481,5.481,0,0,1,.548-4.072,5.279,5.279,0,0,1,3.269-2.484,5.351,5.351,0,0,1,6.008,7.871,5.24,5.24,0,0,1-3.251,2.484,5.181,5.181,0,0,1-1.388.183,5.37,5.37,0,0,1-5.186-3.981Zm2.684-.712a2.593,2.593,0,0,0,4.748.639,2.646,2.646,0,0,0,.274-1.972,2.611,2.611,0,0,0-2.447-1.936,2.714,2.714,0,0,0-.657,0,2.574,2.574,0,0,0-1.826,3.178Zm-35.227-76.463a5.362,5.362,0,1,1-7.579,0,5.479,5.479,0,0,1,7.579,0Zm-3.8,1.187a2.557,2.557,0,0,0-1.826.767,2.611,2.611,0,0,0,0,3.652,2.648,2.648,0,0,0,3.652,0,2.612,2.612,0,0,0-1.826-4.438Zm42.99-.183h-2.776v7.031h2.776Z" transform="translate(-315.57 -301.028)" fill="#fff"/>
</svg>
