<svg xmlns="http://www.w3.org/2000/svg" width="114.24" height="110.879" viewBox="0 0 114.24 110.879">
  <g id="noun-brain-2126810" transform="translate(-30.219 -45.458)">
    <path id="Pfad_223" data-name="Pfad 223" d="M1065.877,666.923a5.57,5.57,0,1,1,5.558-5.558A5.572,5.572,0,0,1,1065.877,666.923Zm0-9.272a3.7,3.7,0,1,0,3.69,3.714A3.7,3.7,0,0,0,1065.877,657.651Z" transform="translate(-927.227 -549.282)" fill="#fff" stroke="#fff" stroke-width="0.5"/>
    <path id="Pfad_224" data-name="Pfad 224" d="M945.9,282.313a5.57,5.57,0,1,1,5.558-5.582A5.582,5.582,0,0,1,945.9,282.313Zm0-9.272a3.7,3.7,0,1,0,3.69,3.69A3.7,3.7,0,0,0,945.9,273.041Z" transform="translate(-819.181 -202.998)" fill="#fff" stroke="#fff" stroke-width="0.5"/>
    <path id="Pfad_225" data-name="Pfad 225" d="M846.986,1052.955a5.558,5.558,0,1,1,5.558-5.558A5.577,5.577,0,0,1,846.986,1052.955Zm0-9.272a3.69,3.69,0,1,0,3.69,3.69A3.7,3.7,0,0,0,846.986,1043.683Z" transform="translate(-730.127 -896.867)" fill="#fff" stroke="#fff" stroke-width="0.5"/>
    <path id="Pfad_226" data-name="Pfad 226" d="M586.6,56.825a5.558,5.558,0,1,1,5.558-5.558A5.577,5.577,0,0,1,586.6,56.825Zm0-9.272a3.69,3.69,0,1,0,3.69,3.69A3.7,3.7,0,0,0,586.6,47.553Z" transform="translate(-495.684)" fill="#fff" stroke="#fff" stroke-width="0.5"/>
    <path id="Pfad_227" data-name="Pfad 227" d="M55.722,313.524a10.317,10.317,0,0,1-9.739-6.726c-6.866-.35-11.77-5.979-11.77-13.663a13.4,13.4,0,0,1,.42-3.363,13.867,13.867,0,0,1-4.157-9.832,13.578,13.578,0,0,1,3.76-9.435A13.711,13.711,0,0,1,40,251.727a10.333,10.333,0,0,1,5.091-5.7,13.8,13.8,0,0,1,13.686-12.775,13.388,13.388,0,0,1,4.718.841,8.6,8.6,0,0,1,1.144-.07,11.163,11.163,0,0,1,11.164,11.187v56.4a11.178,11.178,0,0,1-11.164,11.164,10.977,10.977,0,0,1-3.713-.631,10.647,10.647,0,0,1-5.208,1.378ZM35.917,288.418l.07.023a.923.923,0,0,1,.561.467.972.972,0,0,1,.07.724,11.684,11.684,0,0,0-.537,3.5c0,6.96,4.367,11.817,10.6,11.817a.932.932,0,0,1,.887.654,8.464,8.464,0,0,0,8.151,6.049,8.652,8.652,0,0,0,4.6-1.331.944.944,0,0,1,.864-.07,9.013,9.013,0,0,0,3.457.654,9.3,9.3,0,0,0,9.3-9.3V245.187a9.338,9.338,0,0,0-2.733-6.586,9.243,9.243,0,0,0-6.563-2.733,6.675,6.675,0,0,0-1.238.093.86.86,0,0,1-.7-.163.323.323,0,0,1-.093-.07,11.66,11.66,0,0,0-3.83-.631,11.926,11.926,0,0,0-11.864,11.631.917.917,0,0,1-.934.911H45.96a8.5,8.5,0,0,0-4.391,5.185.915.915,0,0,1-1,.654A11.852,11.852,0,0,0,36.011,269.9l.023.023a.935.935,0,0,1,.28.677.959.959,0,0,1-.3.677,11.725,11.725,0,0,0-3.713,8.641,11.9,11.9,0,0,0,3.62,8.5Zm20.506,7.707a3.106,3.106,0,1,1,3.106-3.106A3.12,3.12,0,0,1,56.423,296.125Zm0-4.344a1.238,1.238,0,1,0,1.238,1.238A1.246,1.246,0,0,0,56.423,291.781Zm-6.96-8.244a3.106,3.106,0,0,1,0-6.212,3.106,3.106,0,1,1,0,6.212Zm0-4.321a1.226,1.226,0,0,0-1.215,1.238,1.212,1.212,0,0,0,1.215,1.238,1.231,1.231,0,0,0,1.238-1.238A1.278,1.278,0,0,0,49.463,279.216Zm-6.1-8.758a3.069,3.069,0,0,1-3.083-2.849,1.072,1.072,0,0,1-.023-.234,3.106,3.106,0,1,1,6.212,0,3.085,3.085,0,0,1-3.106,3.083Zm-1.261-3.13a.211.211,0,0,0,.023.117,1.217,1.217,0,0,0,1.238,1.168,1.238,1.238,0,1,0,0-2.476,1.274,1.274,0,0,0-1.261,1.191Zm11.49-.07a3.106,3.106,0,1,1,3.106-3.106A3.12,3.12,0,0,1,53.6,267.258Zm0-4.344a1.238,1.238,0,1,0,1.238,1.238A1.246,1.246,0,0,0,53.6,262.914Zm7.684-.163a3.106,3.106,0,1,1,3.106-3.106A3.12,3.12,0,0,1,61.28,262.751Zm0-4.344a1.238,1.238,0,1,0,1.238,1.238A1.246,1.246,0,0,0,61.28,258.407Zm-7.053-7.544a3.095,3.095,0,1,1,3.106-3.083A3.1,3.1,0,0,1,54.227,250.863Zm0-4.321a1.246,1.246,0,0,0-1.238,1.238,1.238,1.238,0,0,0,2.476,0A1.262,1.262,0,0,0,54.227,246.542Z" transform="translate(-0.006 -168.857)" fill="#fff" stroke="#fff" stroke-width="0.5"/>
    <path id="Pfad_228" data-name="Pfad 228" d="M511.089,342.159h-4.134a.934.934,0,0,1,0-1.868h3.2V330.178a.927.927,0,0,1,.771-.911,25.065,25.065,0,0,0,10.206-4.251.949.949,0,0,1,1.191.093l7.147,7.17,5.185-5.208-7.147-7.147a.9.9,0,0,1-.093-1.191,25.207,25.207,0,0,0,4.227-10.23.927.927,0,0,1,.911-.771h10.159v-7.357H532.6a.927.927,0,0,1-.911-.771,25.241,25.241,0,0,0-4.227-10.206.951.951,0,0,1,.093-1.191l7.147-7.17-5.185-5.208-7.17,7.147a.925.925,0,0,1-1.191.117,25.519,25.519,0,0,0-10.206-4.227.927.927,0,0,1-.771-.911V267.844h-3.223a.934.934,0,0,1,0-1.868h4.157a.937.937,0,0,1,.934.934v10.276a27.5,27.5,0,0,1,9.529,3.947l7.263-7.263a.93.93,0,0,1,1.331,0l6.516,6.516a.9.9,0,0,1,0,1.308l-7.263,7.287a26.958,26.958,0,0,1,3.947,9.529h10.276a.937.937,0,0,1,.934.934v9.225a.937.937,0,0,1-.934.934H533.37a27.253,27.253,0,0,1-3.947,9.552l7.263,7.263a.931.931,0,0,1,0,1.331l-6.516,6.539a.922.922,0,0,1-.654.28.848.848,0,0,1-.654-.28L521.6,327a26.606,26.606,0,0,1-9.529,3.947v10.276a1.011,1.011,0,0,1-.981.934Z" transform="translate(-428.164 -198.318)" fill="#fff" stroke="#fff" stroke-width="0.5"/>
    <path id="Pfad_229" data-name="Pfad 229" d="M506.941,510.089a.934.934,0,0,1-.023-1.868,15.4,15.4,0,0,0,14.854-15.274,15.23,15.23,0,0,0-14.854-15.3.934.934,0,0,1,.047-1.868,17.149,17.149,0,0,1,0,34.285.023.023,0,0,1-.023.023Z" transform="translate(-428.15 -387.216)" fill="#fff" stroke="#fff" stroke-width="0.5"/>
    <path id="Pfad_230" data-name="Pfad 230" d="M506.915,585.757a.94.94,0,0,1-.934-.864.955.955,0,0,1,.864-1,5.936,5.936,0,0,0,0-11.841.924.924,0,1,1,.117-1.845,7.8,7.8,0,0,1,0,15.555h-.047Z" transform="translate(-428.125 -472.226)" fill="#fff" stroke="#fff" stroke-width="0.5"/>
    <path id="Pfad_231" data-name="Pfad 231" d="M189.926,850.067a10.349,10.349,0,0,1-9.949-7.357,9.9,9.9,0,0,1-.444-3.013,10.431,10.431,0,0,1,8.945-10.3.931.931,0,0,1,.257,1.845A8.569,8.569,0,0,0,181.4,839.7a7.7,7.7,0,0,0,.374,2.452,8.492,8.492,0,0,0,8.174,6.049,8.652,8.652,0,0,0,4.6-1.331.944.944,0,0,1,.864-.07,9.013,9.013,0,0,0,3.457.654,9.3,9.3,0,0,0,9.3-9.3.934.934,0,1,1,1.868,0,11.178,11.178,0,0,1-11.164,11.164,10.977,10.977,0,0,1-3.714-.631,10.552,10.552,0,0,1-5.232,1.378Z" transform="translate(-134.21 -705.588)" fill="#fff" stroke="#fff" stroke-width="0.5"/>
    <path id="Pfad_232" data-name="Pfad 232" d="M282.515,251.184a.937.937,0,0,1-.934-.934,9.338,9.338,0,0,0-2.733-6.586,9.243,9.243,0,0,0-6.563-2.733,6.675,6.675,0,0,0-1.238.093H271a9.333,9.333,0,0,0-8.034,9.225.934.934,0,0,1-1.868,0,11.211,11.211,0,0,1,9.622-11.07,7.809,7.809,0,0,1,1.541-.117,11.163,11.163,0,0,1,11.164,11.187.9.9,0,0,1-.911.934Z" transform="translate(-207.648 -174.087)" fill="#fff" stroke="#fff" stroke-width="0.5"/>
    <path id="Pfad_233" data-name="Pfad 233" d="M80.2,721.867c-7.217,0-12.472-5.745-12.472-13.686a13.347,13.347,0,0,1,.631-4.087,13.772,13.772,0,0,1,12.425-9.646.935.935,0,0,1,.093,1.868,11.893,11.893,0,0,0-10.743,8.338,11.723,11.723,0,0,0-.537,3.527c0,6.96,4.367,11.817,10.6,11.817a.937.937,0,0,1,.934.934.922.922,0,0,1-.934.934Z" transform="translate(-33.548 -584.094)" fill="#fff" stroke="#fff" stroke-width="0.5"/>
    <path id="Pfad_234" data-name="Pfad 234" d="M35.444,588.957a.9.9,0,0,1-.631-.257,13.83,13.83,0,0,1-4.344-10,13.6,13.6,0,0,1,4.321-10A13.98,13.98,0,0,1,41,565.322a.926.926,0,0,1,.444,1.8,12.007,12.007,0,0,0-5.372,2.919,11.86,11.86,0,0,0,.047,17.283.951.951,0,0,1,.047,1.331,1.09,1.09,0,0,1-.724.3Z" transform="translate(0 -467.813)" fill="#fff" stroke="#fff" stroke-width="0.5"/>
    <path id="Pfad_235" data-name="Pfad 235" d="M54.083,435.514a.911.911,0,0,1-.794-.444A13.714,13.714,0,0,1,58.777,415.8a.935.935,0,1,1,.864,1.658A11.83,11.83,0,0,0,53.2,428.017a11.5,11.5,0,0,0,1.7,6.1.916.916,0,0,1-.817,1.4Z" transform="translate(-18.78 -333.124)" fill="#fff" stroke="#fff" stroke-width="0.5"/>
    <path id="Pfad_236" data-name="Pfad 236" d="M190.453,258.562a13.755,13.755,0,0,1-13.733-13.732V244.6a13.8,13.8,0,0,1,13.733-13.5,13.273,13.273,0,0,1,4.788.864.939.939,0,0,1-.677,1.752,11.651,11.651,0,0,0-4.11-.747A11.926,11.926,0,0,0,178.588,244.6v.21a11.881,11.881,0,0,0,11.864,11.864.937.937,0,0,1,.934.934.957.957,0,0,1-.934.958Z" transform="translate(-131.677 -166.915)" fill="#fff" stroke="#fff" stroke-width="0.5"/>
    <path id="Pfad_237" data-name="Pfad 237" d="M131.02,375.689c-5.722,0-11.49-3.06-11.49-8.9a10.011,10.011,0,0,1,.444-3.013,10.335,10.335,0,0,1,5.558-6.423.936.936,0,0,1,.771,1.7,8.393,8.393,0,0,0-4.554,5.278,8.665,8.665,0,0,0-.374,2.452c0,4.624,4.835,7.03,9.622,7.03a.937.937,0,0,1,.934.934.917.917,0,0,1-.911.934Z" transform="translate(-80.186 -280.516)" fill="#fff" stroke="#fff" stroke-width="0.5"/>
    <path id="Pfad_238" data-name="Pfad 238" d="M467.579,400.2a.937.937,0,0,1-.934-.934V342.884a.934.934,0,0,1,1.868,0v56.4a.932.932,0,0,1-.934.911Z" transform="translate(-392.712 -266.722)" fill="#fff" stroke="#fff" stroke-width="0.5"/>
    <path id="Pfad_239" data-name="Pfad 239" d="M311.544,471.208a3.106,3.106,0,1,1,3.106-3.106A3.1,3.1,0,0,1,311.544,471.208Zm0-4.344a1.238,1.238,0,1,0,1.238,1.238A1.246,1.246,0,0,0,311.544,466.864Z" transform="translate(-250.27 -377.507)" fill="#fff" stroke="#fff" stroke-width="0.5"/>
    <path id="Pfad_240" data-name="Pfad 240" d="M240.764,352.129a3.095,3.095,0,1,1,3.106-3.083A3.1,3.1,0,0,1,240.764,352.129Zm0-4.3a1.246,1.246,0,0,0-1.238,1.238,1.238,1.238,0,0,0,2.476,0A1.246,1.246,0,0,0,240.764,347.832Z" transform="translate(-186.543 -270.314)" fill="#fff" stroke="#fff" stroke-width="0.5"/>
    <path id="Pfad_241" data-name="Pfad 241" d="M234.434,516.678a3.106,3.106,0,1,1,3.106-3.106A3.12,3.12,0,0,1,234.434,516.678Zm0-4.344a1.238,1.238,0,1,0,1.238,1.238A1.231,1.231,0,0,0,234.434,512.334Z" transform="translate(-180.844 -418.446)" fill="#fff" stroke="#fff" stroke-width="0.5"/>
    <path id="Pfad_242" data-name="Pfad 242" d="M131.774,549a3.069,3.069,0,0,1-3.083-2.849,1.072,1.072,0,0,1-.023-.234A3.106,3.106,0,1,1,131.774,549Zm-1.261-3.153a.211.211,0,0,0,.023.117,1.217,1.217,0,0,0,1.238,1.168,1.238,1.238,0,0,0,0-2.476,1.292,1.292,0,0,0-1.261,1.191Z" transform="translate(-88.413 -447.567)" fill="#fff" stroke="#fff" stroke-width="0.5"/>
    <path id="Pfad_243" data-name="Pfad 243" d="M193.165,679.808a3.106,3.106,0,1,1,3.106-3.106A3.085,3.085,0,0,1,193.165,679.808Zm0-4.321a1.226,1.226,0,0,0-1.215,1.238,1.212,1.212,0,0,0,1.215,1.238,1.231,1.231,0,0,0,1.238-1.238A1.278,1.278,0,0,0,193.165,675.488Z" transform="translate(-143.708 -565.32)" fill="#fff" stroke="#fff" stroke-width="0.5"/>
    <path id="Pfad_244" data-name="Pfad 244" d="M262.794,806.138a3.106,3.106,0,1,1,3.106-3.106A3.12,3.12,0,0,1,262.794,806.138Zm0-4.344a1.238,1.238,0,1,0,1.238,1.238A1.246,1.246,0,0,0,262.794,801.794Z" transform="translate(-206.378 -679.062)" fill="#fff" stroke="#fff" stroke-width="0.5"/>
    <path id="Pfad_245" data-name="Pfad 245" d="M526.965,136.078a.937.937,0,0,1-.934-.934l-.093-11.607a.93.93,0,0,1,.514-.841l5.652-2.943a.935.935,0,0,1,.864,1.658l-5.161,2.662L527.9,135.1a.948.948,0,0,1-.934.981Z" transform="translate(-446.096 -66.571)" fill="#fff" stroke="#fff" stroke-width="0.5"/>
    <path id="Pfad_246" data-name="Pfad 246" d="M586.6,56.825a5.558,5.558,0,1,1,5.558-5.558A5.577,5.577,0,0,1,586.6,56.825Zm0-9.272a3.69,3.69,0,1,0,3.69,3.69A3.7,3.7,0,0,0,586.6,47.553Z" transform="translate(-495.684)" fill="#fff" stroke="#fff" stroke-width="0.5"/>
    <path id="Pfad_247" data-name="Pfad 247" d="M798.509,340.409a.934.934,0,0,1,0-1.868l3.784-.023,4.858-6.8a1.064,1.064,0,0,1,.677-.4l4.437-.42a.939.939,0,0,1,.187,1.868l-4.017.374-4.881,6.843a.964.964,0,0,1-.747.4Z" transform="translate(-690.665 -256.773)" fill="#fff" stroke="#fff" stroke-width="0.5"/>
    <path id="Pfad_248" data-name="Pfad 248" d="M945.9,282.313a5.57,5.57,0,1,1,5.558-5.582A5.582,5.582,0,0,1,945.9,282.313Zm0-9.272a3.7,3.7,0,1,0,3.69,3.69A3.7,3.7,0,0,0,945.9,273.041Z" transform="translate(-819.181 -202.998)" fill="#fff" stroke="#fff" stroke-width="0.5"/>
    <path id="Pfad_249" data-name="Pfad 249" d="M887.485,644.546a.875.875,0,0,1-.724-.35l-6.329-7.847-5.255.4a.937.937,0,0,1-.14-1.868l5.745-.444a.943.943,0,0,1,.794.35l6.353,7.871,5.862-.187a.923.923,0,0,1,.958.911.938.938,0,0,1-.911.958l-6.329.187a.023.023,0,0,1-.023.023Z" transform="translate(-759.627 -530.057)" fill="#fff" stroke="#fff" stroke-width="0.5"/>
    <path id="Pfad_250" data-name="Pfad 250" d="M1065.877,666.923a5.57,5.57,0,1,1,5.558-5.558A5.572,5.572,0,0,1,1065.877,666.923Zm0-9.272a3.7,3.7,0,1,0,3.69,3.714A3.7,3.7,0,0,0,1065.877,657.651Z" transform="translate(-927.227 -549.282)" fill="#fff" stroke="#fff" stroke-width="0.5"/>
    <path id="Pfad_251" data-name="Pfad 251" d="M773.613,920.34a1.365,1.365,0,0,1-.3-.047l-7.59-2.592a.934.934,0,0,1-.631-.888L765,903.548a.934.934,0,0,1,1.868,0l.093,12.589,6.96,2.382a.939.939,0,0,1,.584,1.191.956.956,0,0,1-.887.631Z" transform="translate(-661.332 -771.517)" fill="#fff" stroke="#fff" stroke-width="0.5"/>
    <path id="Pfad_252" data-name="Pfad 252" d="M846.986,1052.955a5.558,5.558,0,1,1,5.558-5.558A5.577,5.577,0,0,1,846.986,1052.955Zm0-9.272a3.69,3.69,0,1,0,3.69,3.69A3.7,3.7,0,0,0,846.986,1043.683Z" transform="translate(-730.127 -896.867)" fill="#fff" stroke="#fff" stroke-width="0.5"/>
  </g>
</svg>
