<svg xmlns="http://www.w3.org/2000/svg" width="82.729" height="95.077" viewBox="0 0 82.729 95.077">
  <g id="noun-process-4021747" transform="translate(-206.71 -147.962)">
    <path id="Pfad_253" data-name="Pfad 253" d="M590.326,190.738v-36.52l4.75,5.09a1.55,1.55,0,0,0,2.268-2.115l-7.434-7.966a1.6,1.6,0,0,0-2.268,0l-7.434,7.966a1.55,1.55,0,1,0,2.265,2.115l4.752-5.09v36.52a3.867,3.867,0,0,1-2.144,3.473l-28.249,14.123a6.941,6.941,0,0,0-3.857,6.243v27.561a1.55,1.55,0,1,0,3.1,0V214.578a3.859,3.859,0,0,1,2.147-3.47l28.246-14.123a6.945,6.945,0,0,0,3.86-6.246Z" transform="translate(-309.848 -0.712)" fill="#fff"/>
    <path id="Pfad_254" data-name="Pfad 254" d="M311.681,232.4l-4.752,5.09V201.136a3.856,3.856,0,0,1,2.164-3.478l29-14.335a6.937,6.937,0,0,0,3.889-6.258V149.574a1.55,1.55,0,1,0-3.1,0v27.492a3.857,3.857,0,0,1-2.164,3.478l-29,14.335a6.937,6.937,0,0,0-3.889,6.258v36.358l-4.752-5.09a1.55,1.55,0,1,0-2.265,2.115l7.434,7.966a1.553,1.553,0,0,0,2.265,0l7.436-7.966a1.55,1.55,0,0,0-2.268-2.115Z" transform="translate(-80.222)" fill="#fff"/>
    <path id="Pfad_255" data-name="Pfad 255" d="M746.562,688.4a1.54,1.54,0,0,0-.986-.739l-10.6-2.494a1.55,1.55,0,1,0-.71,3.017l6.716,1.58L721.655,699.4a6.941,6.941,0,0,0-3.867,6.248v16.445a1.55,1.55,0,1,0,3.1,0V705.648a3.86,3.86,0,0,1,2.152-3.473l19.555-9.741-2.073,6.7a1.55,1.55,0,1,0,2.958.917L746.7,689.64a1.547,1.547,0,0,0-.138-1.235Z" transform="translate(-457.329 -480.667)" fill="#fff"/>
    <path id="Pfad_256" data-name="Pfad 256" d="M218.382,192.452a1.55,1.55,0,0,0,.569-2.992l-6.221-2.465,28.3-14.5a6.954,6.954,0,0,0,3.8-6.214V150.1a1.55,1.55,0,0,0-3.1,0v16.193a3.864,3.864,0,0,1-2.112,3.451l-28.411,14.542,3.135-6.569a1.55,1.55,0,0,0-2.8-1.336l-4.683,9.834a1.546,1.546,0,0,0,.828,2.107l10.135,4.005a1.547,1.547,0,0,0,.557.123Z" transform="translate(0 -0.526)" fill="#fff"/>
  </g>
</svg>
