<svg xmlns="http://www.w3.org/2000/svg" width="93.605" height="108.201" viewBox="0 0 93.605 108.201">
  <g id="noun-physics-1953602" transform="translate(-184.721 -119.999)">
    <path id="Pfad_257" data-name="Pfad 257" d="M185.92,202.892c1.787,2.8,5.4,4.223,10.508,4.223a44.241,44.241,0,0,0,10.64-1.524,85.367,85.367,0,0,0,8.731-2.768c3.291,15.342,9.185,25.378,16.048,25.378,6.832,0,12.7-9.944,16-25.168,7.227,2.628,13.687,4.028,18.776,4.028,5.016,0,8.708-1.346,10.511-4.168,2.083-3.264,1.42-8-1.862-13.716a6.826,6.826,0,0,0-8.257-10.75c-1.451-1.547-2.99-3.095-4.637-4.637,12.523-11.734,18.661-22.981,14.756-29.1-3.64-5.7-15-5.364-29.413-.1C244.4,129.693,238.591,120,231.846,120c-2.915,0-5.657,1.706-8.16,5.052a6.772,6.772,0,0,0-2.122-.371,6.837,6.837,0,0,0-3.66,12.62c-.743,2.345-1.408,4.853-1.988,7.5a85.494,85.494,0,0,0-8.847-2.815c-10.787-2.731-18.3-1.772-21.148,2.7s-.557,11.685,6.462,20.316a89.526,89.526,0,0,0,8.3,8.791c-1.533,1.435-2.989,2.874-4.352,4.313a6.787,6.787,0,0,0-2.848-.64,6.858,6.858,0,0,0-6.851,6.851,6.784,6.784,0,0,0,1.5,4.229c-3.608,6-4.376,10.959-2.216,14.344Zm45.926,22.6c-5.108,0-10.453-8.878-13.531-23.655a131.632,131.632,0,0,0,13.2-6.22,129.152,129.152,0,0,0,13.811,6.458c-3.083,14.632-8.4,23.418-13.478,23.418ZM215.71,174.1c0-3.148.1-6.246.275-9.277q3.315-2.368,6.861-4.637,4.427-2.824,8.674-5.16c2.889,1.592,5.794,3.313,8.686,5.16,2.587,1.651,5.107,3.37,7.539,5.133q.231,4.236.237,8.78,0,4.207-.2,8.152-3.581,2.581-7.573,5.141c-2.892,1.845-5.8,3.568-8.686,5.16q-4.24-2.343-8.674-5.16-3.569-2.276-6.909-4.67-.221-4.16-.227-8.622Zm-2.569,6.572c-3.005-2.256-5.835-4.558-8.443-6.873q3.94-3.5,8.47-6.907-.159,3.556-.164,7.208c0,2.232.052,4.421.138,6.573Zm3.084-19.312a126.754,126.754,0,0,1,1.7-12.87c3.492,1.427,7.1,3.123,10.75,5.031q-3.613,2.045-7.287,4.385c-1.766,1.128-3.48,2.286-5.165,3.454Zm18.1-7.846a125.307,125.307,0,0,1,11.417-5.311,126.436,126.436,0,0,1,1.773,13.636c-1.9-1.332-3.843-2.65-5.851-3.932-2.443-1.558-4.894-3.009-7.34-4.393ZM250.545,167.4c2.77,2.106,5.381,4.259,7.819,6.422-2.369,2.1-4.971,4.23-7.792,6.368q.112-2.994.116-6.089c0-2.275-.052-4.507-.143-6.7Zm-2.982,18.317a127.824,127.824,0,0,1-1.715,13.7,124.885,124.885,0,0,1-11.528-5.355c2.447-1.384,4.9-2.835,7.34-4.393q3.053-1.945,5.9-3.955Zm-26.172,3.956q3.672,2.343,7.294,4.382c-3.7,1.934-7.353,3.648-10.889,5.087a128.191,128.191,0,0,1-1.629-12.951q2.553,1.771,5.224,3.483Zm53.2-5.353a4.146,4.146,0,1,1-4.146-4.146A4.15,4.15,0,0,1,274.594,184.319Zm-9.6-4.1a6.786,6.786,0,0,0-1.392,4.1,6.83,6.83,0,0,0,9.409,6.345c2.644,4.654,3.318,8.468,1.847,10.773-2.7,4.229-12.744,4.039-26.467-1.041a132.533,132.533,0,0,0,2.014-16.711c3.618-2.663,6.956-5.367,9.971-8.06,1.655,1.539,3.185,3.076,4.618,4.6Zm9.864-34.081c2.9,4.539-2.382,14.6-14.465,25.845-3.076-2.748-6.431-5.463-10.026-8.107a130.951,130.951,0,0,0-2.09-16.655c13.782-5.122,23.873-5.325,26.581-1.083Zm-53.289-18.758a4.146,4.146,0,1,1-1.459,8.012,1.207,1.207,0,0,0-.129-.074.748.748,0,0,0-.093-.011,4.141,4.141,0,0,1,1.681-7.927Zm-1.129,10.883a6.776,6.776,0,0,0,1.129.114,6.822,6.822,0,0,0,4.5-11.978c1.9-2.444,3.84-3.7,5.786-3.7,5.014,0,10.252,8.558,13.352,22.842a129.579,129.579,0,0,0-13.686,6.413,131.5,131.5,0,0,0-13.044-6.162c.572-2.661,1.229-5.182,1.967-7.529ZM194.482,163.3c-6.135-7.545-8.423-13.8-6.281-17.154s8.778-3.917,18.2-1.529a83.674,83.674,0,0,1,8.962,2.878,131.706,131.706,0,0,0-2,15.9c-3.837,2.79-7.41,5.667-10.673,8.58a87.546,87.546,0,0,1-8.208-8.672Zm-1,16.876a4.146,4.146,0,1,1-4.146,4.146A4.15,4.15,0,0,1,193.485,180.172Zm-3.241,10.142a6.766,6.766,0,0,0,3.241.852,6.823,6.823,0,0,0,5.048-11.444q1.96-2.053,4.155-4.1c3.241,2.892,6.813,5.76,10.637,8.545a132.557,132.557,0,0,0,1.933,15.962,83.087,83.087,0,0,1-8.851,2.835c-9.426,2.386-16.061,1.828-18.2-1.531-1.511-2.361-.772-6.3,2.041-11.117Z" fill="#fff"/>
    <path id="Pfad_258" data-name="Pfad 258" d="M527.415,536.63a9.22,9.22,0,1,0-9.22-9.22A9.23,9.23,0,0,0,527.415,536.63Zm0-15.735a6.515,6.515,0,1,1-6.515,6.515A6.523,6.523,0,0,1,527.415,520.9Z" transform="translate(-295.888 -353.311)" fill="#fff"/>
  </g>
</svg>
